/* XPM */
static char *result[] = {
/* columns rows colors chars-per-pixel */
"64 64 231 2 ",
"   c #201E09",
".  c #2C2A0C",
"X  c #24220A",
"o  c #36340E",
"O  c #28281B",
"+  c #3D3A11",
"@  c #3A3711",
"#  c #3D3D29",
"$  c #363624",
"%  c #423E13",
"&  c #474313",
"*  c #514E16",
"=  c #565217",
"-  c #5C5918",
";  c #6E4D12",
":  c #635F19",
">  c #67631C",
",  c #736D1E",
"<  c #4A4A31",
"1  c #575739",
"2  c #7D7620",
"3  c #65643D",
"4  c #66632D",
"5  c #666544",
"6  c #7A7A51",
"7  c #71704A",
"8  c #855913",
"9  c #946B1B",
"0  c #996A17",
"q  c #9D741D",
"w  c #9B771F",
"e  c #8B6316",
"r  c #A36D13",
"t  c #AA7213",
"y  c #A2741D",
"u  c #AB751B",
"i  c #A57717",
"p  c #B37713",
"a  c #B57A13",
"s  c #BC7D15",
"d  c #BD7E1C",
"f  c #B5781C",
"g  c #947324",
"h  c #9C7922",
"j  c #997927",
"k  c #8E752E",
"l  c #A27621",
"z  c #A37B24",
"x  c #AA7C23",
"c  c #A67B26",
"v  c #B07B21",
"b  c #C17F16",
"n  c #AC831D",
"m  c #B78A1E",
"M  c #BA8D1F",
"N  c #BF8116",
"B  c #898324",
"V  c #8F8925",
"C  c #988925",
"Z  c #9B9529",
"A  c #9A843B",
"S  c #A58425",
"D  c #AB8424",
"F  c #AC8927",
"G  c #A5842A",
"H  c #AC842A",
"J  c #A58B2B",
"K  c #AC8C2D",
"L  c #A48B27",
"P  c #B28425",
"I  c #B38A23",
"U  c #BB8E21",
"Y  c #B38529",
"T  c #B48C2C",
"R  c #B88D2C",
"E  c #A6922A",
"W  c #A9932A",
"Q  c #AC9C2B",
"!  c #A59427",
"~  c #B5922E",
"^  c #BB932D",
"/  c #B19C2E",
"(  c #BE9325",
")  c #AE8E32",
"_  c #A48A3A",
"`  c #B18E30",
"'  c #B59331",
"]  c #BB9432",
"[  c #BB9B33",
"{  c #B69A31",
"}  c #AF9130",
"|  c #ACA32D",
" . c #A7A22C",
".. c #B3AB2E",
"X. c #B8A92E",
"o. c #BBB12F",
"O. c #BCA732",
"+. c #BDB431",
"@. c #ADA032",
"#. c #C48416",
"$. c #C98516",
"%. c #CC8619",
"&. c #C68519",
"*. c #D38B1B",
"=. c #D98F1D",
"-. c #DA911E",
";. c #D7901E",
":. c #C68520",
">. c #D58E22",
",. c #C39523",
"<. c #CC9B25",
"1. c #C2962C",
"2. c #CB9B2B",
"3. c #C69A27",
"4. c #DD9322",
"5. c #D19F2A",
"6. c #C49B34",
"7. c #C99E34",
"8. c #C09733",
"9. c #E19623",
"0. c #E59A24",
"q. c #EB9E26",
"w. c #D5A22A",
"e. c #DAA92D",
"r. c #D8A82A",
"t. c #CBA236",
"y. c #CEA438",
"u. c #C8A937",
"i. c #D4A434",
"p. c #DEAD35",
"a. c #D2A538",
"s. c #D6A93A",
"d. c #DBAD3B",
"f. c #D4A934",
"g. c #C4BA32",
"h. c #C6B932",
"j. c #DEB03C",
"k. c #DDBC3D",
"l. c #D6B237",
"z. c #CBAA2A",
"x. c #EBB62B",
"c. c #EEB82B",
"v. c #E5B229",
"b. c #F0BA2C",
"n. c #E1AE33",
"m. c #E0AE3C",
"M. c #E3B136",
"N. c #EDBD33",
"B. c #E5B43C",
"V. c #E9B63B",
"C. c #E2BD3D",
"Z. c #ECBA3E",
"A. c #E7B930",
"S. c #F1BD3F",
"D. c #E1AF29",
"F. c #CCC234",
"G. c #CFC936",
"H. c #D1C635",
"J. c #D4CA36",
"K. c #D9CC37",
"L. c #D6CF38",
"P. c #DED539",
"I. c #DFD93A",
"U. c #CFC82F",
"Y. c #E4C13F",
"T. c #ECC43B",
"R. c #F2C233",
"E. c #F5CA3B",
"W. c #FACE3D",
"Q. c #F6C13F",
"!. c #E4DB3A",
"~. c #E9DD3B",
"^. c #E2D63A",
"/. c #EBE33C",
"(. c #ECE63D",
"). c #F1E63E",
"_. c #F4EB3F",
"`. c #F8ED3F",
"'. c #FFFE3E",
"]. c #F7F03F",
"[. c #9C8B44",
"{. c #8A895C",
"}. c #A4944C",
"|. c #A69B55",
" X c #A08F4A",
".X c #ADA057",
"XX c #9B9A66",
"oX c #A9A568",
"OX c #BFB56A",
"+X c #B9B777",
"@X c #B0AF75",
"#X c #C6B95E",
"$X c #EFBD40",
"%X c #E0BF40",
"&X c #F1BE40",
"*X c #C2BA72",
"=X c #E5C441",
"-X c #EDC942",
";X c #F4C142",
":X c #FAC644",
">X c #FCC945",
",X c #F1CE42",
"<X c #FCD544",
"1X c #FED945",
"2X c #FFDC49",
"3X c #F6D245",
"4X c #F5EE40",
"5X c #FCEF40",
"6X c #FEF441",
"7X c #FFFC44",
"8X c #FBF545",
"9X c #F4EE49",
"0X c #C6C27B",
"qX c #FFFD67",
"wX c #FFFD76",
"eX c #CDCC86",
"rX c #C5C483",
"tX c #D3D28B",
"yX c #D8D78E",
"uX c #DEDE93",
"iX c #DFE098",
"pX c #E2E399",
"aX c #E6E79A",
"sX c #F6F69E",
"dX c #FFFF8E",
"fX c #E9ECA1",
"gX c #F3F4A4",
"hX c #FFFFAD",
"jX c #F9FAA8",
"kX c #FFFFB1",
"lX c None",
/* pixels */
"lXlXlXlXlXlXlXlXlXlXlXlXlXlXlXlXlXlXlXlXlXlXlXlXlXlXlXlXlXlXlXlXlXlXlXlXlXlXlXlXlXlXlXlXlXlXlXlXlXlXlXlXlXlXlXlXlXlXlXlXlXlXlXlX",
"lXlXlXlXlXlXlXlXlXlXlXlXlXlXlXlXlXlXlXlXlXlXlXlXlX@ > V | g.H.L.L.H.g...V > + lXlXlXlXlXlXlXlXlXlXlXlXlXlXlXlXlXlXlXlXlXlXlXlXlX",
"lXlXlXlXlXlXlXlXlXlXlXlXlXlXlXlXlXlXlXlXlXlX- | !.6X7X7X7X7X7X7X7X7X7X7X7X7X7X~...> lXlXlXlXlXlXlXlXlXlXlXlXlXlXlXlXlXlXlXlXlXlX",
"lXlXlXlXlXlXlXlXlXlXlXlXlXlXlXlXlXlXlX@ Z 4X7X7X7X7X7X8X`.(.~.~.~.~.(.`.6X7X7X7X7X7X). .& lXlXlXlXlXlXlXlXlXlXlXlXlXlXlXlXlXlXlX",
"lXlXlXlXlXlXlXlXlXlXlXlXlXlXlXlXlX# @XqX'.7X7X5X!.g.O.O.{ 6.t.u.f.t.[ [ O.O.F.!.6X8X7X7X7X+.& lXlXlXlXlXlXlXlXlXlXlXlXlXlXlXlXlX",
"lXlXlXlXlXlXlXlXlXlXlXlXlXlXlXlXXXhXkXdX6X!.+./ ] a.d.$X;X;X;X;X&X;X;X&XZ.m.a.] W h.~.6X7X7X7X .X lXlXlXlXlXlXlXlXlXlXlXlXlXlXlX",
"lXlXlXlXlXlXlXlXlXlXlXlXlXlX1 iXkXhXkXuX@.~ s.$X;X;X;X$XZ.$X$X$X$X$X$X$X$X&X;X;X$Xs.{ / P.7X7X7X4X> lXlXlXlXlXlXlXlXlXlXlXlXlXlX",
"lXlXlXlXlXlXlXlXlXlXlXlXlX{.hXhXhXaXoX) d.:X&X$X&X$X$X$X$X$X$X$X$X$X$X$X&X$X&XZ.&X;X;Xm.~ | /.7X8X7XZ lXlXlXlXlXlXlXlXlXlXlXlXlX",
"lXlXlXlXlXlXlXlXlXlXlXlX@XkXhXkXrX_ e.;X&X&X$X$X$X$X$X$X$X$X$X$X$X$X$X$X&X$X$X$X$X$X$X;X;Xd.K g.6X7X7X+.lXlXlXlXlXlXlXlXlXlXlXlX",
"lXlXlXlXlXlXlXlXlXlXlXrXkXhXgXoXR Z.&X&X&X&X$X$X$X$X$X&X$X&X$X$X$X$X$X$X$X$X$X$X$X$X$XZ.$X;X;X8.Q 4X7X7XL.X lXlXlXlXlXlXlXlXlXlX",
"lXlXlXlXlXlXlXlXlXlXeXkXhXfX X2.&X$X$X&XZ.$X$X$X$X$X$X$X$X$X$X$X$X$X$X$X$X$X$X$X$X$X$X$X$X$XS.;Xd.E /.7X7XP.  lXlXlXlXlXlXlXlXlX",
"lXlXlXlXlXlXlXlXlX+XkXhXaXA e.S.$X$X$X$X&X$X$X&X$X$X$X$X$X$X$X$X$X$X$X$X&XZ.&X$X$X$X&X$X$X$X$X&X&X%XK I.7X7XG.lXlXlXlXlXlXlXlXlX",
"lXlXlXlXlXlXlXlXXXkXhXaXA e.$X$X$X$X$X$X$X&X$X$X&X$X$X$X$X$X&X$X$X$X;X$X$X$X$X$X$X$X$X$X$X$X$X$X&X&X$XH /.6X7X..lXlXlXlXlXlXlXlX",
"lXlXlXlXlXlXlX5 kXhXgX[.e.$XV.$X$X$X$X$X$X$X$X$X$X$X$X$X$X$X$X$X$X$XZ.$X$X$X$X$X$X$X$X$X$X$X$X$X$X$X$X$XJ ).7X7X2 lXlXlXlXlXlXlX",
"lXlXlXlXlXlXO gXhXhX|.,.V.$X$X$X$X$X$X$X$X$X$X$X$X&X$X$X$X$X$X$X&X$X$X$X$X$X$X$X$X$X&X$X&X$X$X$X$X$X$X&Xd.W 6X6X8X+ lXlXlXlXlXlX",
"lXlXlXlXlXlX+XkXhX+XP V.Z.$X$X$X&X$X$X$X$X$X$X$X$X$X$X$X$X$X$X&X$X$X$X$X$X$X$X$X$X$X$X$X$X$X$X$X$X$X$X&X&X6.o.7X7XH.lXlXlXlXlXlX",
"lXlXlXlXlX1 hXhXpXj M.Z.Z.&X$X$X$X$X$X$X$X$X$X$X$X$X$X$X$X$X$X$X$X$X$X$X$X$X$X$X$X$X$X&X$X&X$X$X$X$X$X$X$X&XH P.7X7X, lXlXlXlXlX",
"lXlXlXlXlXyXhXhX}.2.V.Z.$X$X&X$X$X$X$X$X$X$XZ.&X$X$X$X$X&X$X$X$X$X$X$X$X$X$X$X$X$X$X$X$X$X$X$X$X$X$X&X$X&XZ.p.J 8X7X~.lXlXlXlXlX",
"lXlXlXlX5 kXhXeXD M.$X$X$X$X$X$X$X$X$X$X$X&X&X$X$X&X$X$X$X$X$X$X$X$X$X$X$X$X&X$X$X$X$X$X$X$X$X$X$X$X$X$X$XZ.&XY F.7X7X2 lXlXlXlX",
"lXlXlXlXeXkXhX[.w.B.$X$X$X$X$X$X$X$X$X&X$X$X$X$X$X$X$X&X$X$X$X$X$X$X&X$X$X$X$X&X$X$X$X$X$X$X$X$X&X$X$X$X$X$XZ.p.L 6X7XP.lXlXlXlX",
"lXlXlX# hXhXtXS B.V.$X;X&X&X&X&X;X;X&X&X;X&X$X;X&X&X&X;X&X&X&X;X&X&X&X:X$X$X$X&X&X;X;X&X;X;X;X$X$X$X&X:X&X&X$XB.I H.7X7X= lXlXlX",
"lXlXlXXXkXhX|.<.B.$X&XR Y Y Y Y Y Y Y T 6.V.:X' v Y Y x s.&X%Xc Y v Y c %X&X$Xc Y Y l %Xd.Y T v v Y Y T $X&X$X$Xi.W 7X7X..lXlXlX",
"lXlXlXpXhXaXG n.$X$X&Xx 0.q.0.q.9.q.q.4.:.l s.] :.q.q.4.Y :X6.&.q.q.q.>.` >Xy.f q.q.v ' v >.0.q.0.0.9.f 6.&X&X$XV.F /.7X).lXlXlX",
"lXlX# hXkX0XI V.$X&X&Xx 4.4.0.u x c d 0.0.9.y s.x 9.9.9.x &XY *.9.4.9.9.c :XY >.0.>.Y x 4.0.0.q g x R c a.&X&X$XV.^ g.7X7X= lXlX",
"lXlX6 kXhX.X<.B.$X$X$Xx *.>.=.y $X$X) d =.;.s ] R b >.4.u t.x =.:.8 >.-.u s.l *.=.u s.c *.>.*.&.u x H d.;X$X$X$XV.e./ '.7XZ lXlX",
"lXlX@XkXjX_ e.Z.$X$X;Xl $.&.%.y $X;Xs.r *.$.s Y %X0 *.%.s h u *.t k b *.f c u *.$.l ;Xt.0 s $.*.*.%.a 9 d.;X&XZ.Z.m.L `.7Xg.lXlX",
"lXlXyXhXaXF M.Z.$X$X$Xh b #.#.0 &X>X` t $.$.t ` >Xy s b $.; t $.q 7.r %.s ; s %.r 6.;X>Xd.Y l r a $.#.a c ;X$X$XZ.V.I ~.7X~.lXlX",
"lXlXsXhXtXD B.Z.$X$X&Xl s #.#.0 H l 0 b $.a 9 $X:X7.0 $.#.r #.a c &X9 #.#.0 #.#.9 $X;Xj c T K g e $.#.a H ;X$X$XZ.V.R J.7X6X. lX",
"lXO hXhX0XI B.Z.$X$X&Xl N #.#.s f N #.s r 9 s.;XS.&X9 N #.&.$.0 7.>Xc p #.$.$.t ` ;X$Xe a a p s #.#.a e s.;X$X&XZ.V.^ h.7X6X& lX",
"lX# hXkXOX,.V.$X$X$X&XG q q h 0 q w h z [ $X;X$X&X;X6.9 q q y g $X;Xt.9 q q w 9 B.$X$XT l q y q y q H d.;X$X$X$XZ.V.2.h.7X7X= lX",
"lX< hXkXOX,.Z.&X$X$X$X$XZ.$X%X$XZ.$X$X;X;X$X$X$X&X$X&X$X$X$X%X$X$X$X&X$X%X$XZ.=X;X$X$X;X;X$X$X%XB.$X;X;X$X$XZ.&XS.V.i.u.'.'.: lX",
"lX< kXkXOX,.V.S.$X$X$X&X$X$X&X&X$X$X$X$X$X$X$X$X$X$X&X&X$X$X$X$X$X$XS.&X&X&XS.&X$X$X$X$X$X$X&X&X&X&X&XZ.$X&X&X&XZ.V.2.h.7XqX4 lX",
"lX< sXwXu.2.V.&X$X$X$X$X$X&X$X&X$X&X$X$X$X$X$X$X$X&X&X&X$X$X$X$X$X$X$X$X$X&X$X$X&X&X&X&X&X$X&X$X$X$X$X$X&X$X$X&XZ.V.5.#XjXkX5 lX",
"lX% 7X'.o.1.V.Z.$X$X$X$X$X&X&X;X;X;X;X;X&X$X&X$X&X;X;X;X;X;X;X$X$X$X$X;X;X;X;X;X&X&X&X:X&X&X;X&X&X&X:X;X;X;X$X$XZ.V.<.*XhXhX1 lX",
"lXo 6X7Xh.U V.&X$X$X&X&X&X$Xa.] ] ' ] 6.d.&X&X;Xd.7.] ` ' ] 7.d.;X$X$X7.] ] ] 7.&X6.] ' 8.] 6.;X&Xd.R ] ' d.&X&XZ.V.,.0XkXhX< lX",
"lXlX4X7XF.I V.&X&X$X&X;X7.) u.k.=X-X=XY.K m.B.) { l.=X-X-X=Xl.{ ` $X$X) k.k.%XK %XG %X%X%X%X] 7.>X] u.=Xu.] ;X&XZ.V.T eXhXhX$ lX",
"lXlX^.7X^.F N.$X$X$X&X7.[ 3X2X2Xk.u.u.u.J d.) =X2X2X%X[ [ -X2X2X%X` Z.[ 2X2X2X[ B.' 2X<X2X2X<X) $X6.=X2X=X[ ;XZ.V.M.T pXhXgXlXlX",
"lXlX+.7X_.L n.&X$X&XB.` 2X<X2XO.] a.d.s.j.] k.2X2X%XH %Xd.K ,X2X2Xu.7.[ 1X<X2X[ B.' 2X2Xk.3X2XT.) 6.k.2X=X] :XZ.V.e._ jXhXtXlXlX",
"lXlXV 7X6XW f.Z.Z.;Xs.u.1X<XT.' :X;X&X;X;X' E.>X<X' %X$X:X8.l.<X<Xk.] [ 3X3X1X] B.' <X1XC ' 1X1Xs.g K.<XC.] ;XZ.B.w.}.hXkXoXlXlX",
"lXlX= 7X7X+.1.Z.$XQ.a.t.W.E.T.K ;X;X;X;X:X~ T.E.>XT %X&X>X^ l.W.W.f.8.^ E.Q.E.{ B.~ E.W.[ G l.W.W.j d.W.l.] ;XZ.M.U +XkXkX7 lXlX",
"lXlXlX4X8X!.H V.Z.;XB.F R.N.R.3.K 6.6.6.t.[ <.R.R.e.G y.[ F N.N.R.F j.~ N.N.R.~ B.F N.R.~ j.S A.R.N.A.R.e.~ Q.B.M.S pXhXjXO lXlX",
"lXlXlXo.7X6XE n.Z.$X;X] I v.x.b.D.<.3.w.w d.F 3.v.c.e.,.3.x.c.r.n 6.T.F x.x.x.I B.F c.c.F $Xs.D x.c.x.c.w.~ Q.M.w. XhXhXeXlXlXlX",
"lXlXlX- 7X7Xh.^ S.&X$X;X6.S P M M ( M U z B.S.~ S I &.,.,.M n H y.;X&Xz M m M z $Xh U M w B.;X' n M m M n T S.n.n *XhXkX6 lXlXlX",
"lXlXlXlX~.6X4XL V.Z.$X$X;X;Xd.y.7.7.a.d.$X&X&X;X$Xs.t.6.6.t.B.&X;X$X&Xj.y.y.y.d.;Xd.y.y.d.$X;X;Xy.t.y.y.y.j.M.w.A sXhXgXO lXlXlX",
"lXlXlXlXB 7X7Xh.1.S.&X$X$X$X;X;X;X;X;X;X$X$X$X$X&X&X&X&X&X&X&X$X$X$X$X;X;X;X;X;X$X;X;X;X;XZ.$X$X;X&X;X;X;XB.p.n +XkXkXoXlXlXlXlX",
"lXlXlXlXlX).7X_.L B.$X$X$X$XZ.$X&X$XZ.$X$X$X$X$X$X&X&X&X&X$X&X$X$X$X$X$X$XZ.$X$X$XZ.$X$X$X$X$X$XT.&X&XZ.B.p.<.A jXjXjX$ lXlXlXlX",
"lXlXlXlXlXB 7X7XF.T Q.$X$X$X&X$X$X$X$X$X$X$X$X$X$X$X$X$X&X&X$X$X$X$X$X$X$X$X$X$X$X$X$X$X$X$X;X$X$X$X$XV.B.e.w eXhXkXoXlXlXlXlXlX",
"lXlXlXlXlXlX^.7X6XQ a.;X$X$X$X$X$X$X$X$X$X$X$X$X$X$X$X$X&X&X$X$X&X$X$X$X&X$X$X$X$X$X$X$X$X$XZ.$X$X$X$XM.p.m |.hXjXgXO lXlXlXlXlX",
"lXlXlXlXlXlX= 7X6X4XL M.;X$X$X$X$X$X$X$X$X$X$X$X$X$X$X$X&X$X$X$X&X$X$X$X$X$X$X$X$X$X$X$X$X$X$XZ.$XZ.B.p.,.A gXhXkX7 lXlXlXlXlXlX",
"lXlXlXlXlXlXlXZ 7X7XI.G $X&X$X$X$X$X$X$X&X$X$X$X$X$X&X$X$X$X$X$XZ.$X$X$X$X$X$X$X$X$X$X$X$X$X$X;XZ.B.n.5.k uXhXkX+XlXlXlXlXlXlXlX",
"lXlXlXlXlXlXlXlXH.7X7XH.K &X$X$X$X&X$X$XZ.$X$X&X$X$X$X$X$X$X$X$X&X$X$X$X$X$X$X$X$X$X$X$X$X$X;XV.V.p.w.g tXhXhXpXlXlXlXlXlXlXlXlX",
"lXlXlXlXlXlXlXlX. (.7X7XF.K &X&X$X$X$X$X&X$X$X$X$X$X$X$X&XZ.&X$X$X$X$X$X$X&X$X$X$X$X$X$X;XZ.Z.V.M.w.h eXkXhXjX# lXlXlXlXlXlXlXlX",
"lXlXlXlXlXlXlXlXlX& 4X7X7XH.J $X&X&X&X$X$X$X$X$X$X$X$X$X$X$X$X$X$X$X$X$X$X$X$X$X$X$X$X$XZ.Z.V.p.<.k tXkXhXjX1 lXlXlXlXlXlXlXlXlX",
"lXlXlXlXlXlXlXlXlXlX& 4X7X7XP.J a.:X&X&X$X$X$X$X&X$X$X$X$X$X$X$X&X$X$X$X$X$X$X$X$X$XZ.Z.V.B.M.U A pXkXhXjX3 lXlXlXlXlXlXlXlXlXlX",
"lXlXlXlXlXlXlXlXlXlXlX& /.7X8X`.| ] $X:X&X$X&X&XZ.$X$X&X$X&X$X$X&X$X$X$X$X$X$X$X$XZ.V.C.M.w.n |.gXhXhXgX1 lXlXlXlXlXlXlXlXlXlXlX",
"lXlXlXlXlXlXlXlXlXlXlXlX. G.7X6X7XG.K 6.&X&X&X&X&X$X$X$X$X$X$X$X$X$X$X$X$X$XZ.Z.V.B.M.e.D C U.wXkXkXuX# lXlXlXlXlXlXlXlXlXlXlXlX",
"lXlXlXlXlXlXlXlXlXlXlXlXlXlXZ 7X7X7X4Xg.J 7.V.&X&X&X&XZ.&X&X$X$X$X$XZ.Z.Z.V.V.V.n.5.H C h.4X7X8XhX@XlXlXlXlXlXlXlXlXlXlXlXlXlXlX",
"lXlXlXlXlXlXlXlXlXlXlXlXlXlXlX- I.7X7X7X4XF.Q { a.B.S.;X&X&X&X&XZ.Z.Z.Z.M.p.2.U S ! F.4X7X6X8X4X3 lXlXlXlXlXlXlXlXlXlXlXlXlXlXlX",
"lXlXlXlXlXlXlXlXlXlXlXlXlXlXlXlXlXB _.7X7X7X6X/.g.O.{ [ 6.t.a.i.i.7.1.T F J Q F.~.7X7X7X7X4XZ lXlXlXlXlXlXlXlXlXlXlXlXlXlXlXlXlX",
"lXlXlXlXlXlXlXlXlXlXlXlXlXlXlXlXlXlXX B ~.7X7X7X7X7X6X/.^.K.K.K.K.J.K.^.(.6X7X7X7X7X7X/.Z . lXlXlXlXlXlXlXlXlXlXlXlXlXlXlXlXlXlX",
"lXlXlXlXlXlXlXlXlXlXlXlXlXlXlXlXlXlXlXlXlX- ..(.7X7X7X7X7X7X6X7X7X7X7X7X7X7X7X7X_.+.> lXlXlXlXlXlXlXlXlXlXlXlXlXlXlXlXlXlXlXlXlX",
"lXlXlXlXlXlXlXlXlXlXlXlXlXlXlXlXlXlXlXlXlXlXlXlX* B ..P.).5X6X6X6X6X6X).P.+.V = lXlXlXlXlXlXlXlXlXlXlXlXlXlXlXlXlXlXlXlXlXlXlXlX",
"lXlXlXlXlXlXlXlXlXlXlXlXlXlXlXlXlXlXlXlXlXlXlXlXlXlXlXlXlX. o + + @ . lXlXlXlXlXlXlXlXlXlXlXlXlXlXlXlXlXlXlXlXlXlXlXlXlXlXlXlXlX",
"lXlXlXlXlXlXlXlXlXlXlXlXlXlXlXlXlXlXlXlXlXlXlXlXlXlXlXlXlXlXlXlXlXlXlXlXlXlXlXlXlXlXlXlXlXlXlXlXlXlXlXlXlXlXlXlXlXlXlXlXlXlXlXlX"
};
