/* XPM */
static char *result[] = {
/* columns rows colors chars-per-pixel */
"16 16 171 2 ",
"   c #6C6B1D",
".  c #76721F",
"X  c #B57C1C",
"o  c #817D22",
"O  c #837E22",
"+  c #847F22",
"@  c #7E8058",
"#  c #B9801E",
"$  c #BE801C",
"%  c #BC831E",
"&  c #BE821E",
"*  c #8D8924",
"=  c #9F9829",
"-  c #9E9A29",
";  c #BF8621",
":  c #BD8921",
">  c #BD8922",
",  c #BF8C23",
"<  c #BA8A26",
"1  c #A59C28",
"2  c #A7A32C",
"3  c #A8A32C",
"4  c #AEAA2D",
"5  c #B0A82D",
"6  c #B8AD2A",
"7  c #C4871F",
"8  c #C48720",
"9  c #C18D24",
"0  c #C08D25",
"q  c #C58F27",
"w  c #C88E25",
"e  c #CB9A2E",
"r  c #CF9D2E",
"t  c #D59C2B",
"y  c #CD9F30",
"u  c #CDA32F",
"i  c #D0A32E",
"p  c #D6A62D",
"a  c #D4A82E",
"s  c #D7AC2E",
"d  c #D6A432",
"f  c #D9A635",
"g  c #DAA736",
"h  c #DDA634",
"j  c #D2A833",
"k  c #D4A930",
"l  c #D5A930",
"z  c #D5AA34",
"x  c #D7AC34",
"c  c #DFAD33",
"v  c #D9AA37",
"b  c #DDA835",
"n  c #DEA935",
"m  c #DDA836",
"M  c #DEA936",
"N  c #DCAB36",
"B  c #D4AC3A",
"V  c #D8AD3A",
"C  c #DFAD39",
"Z  c #C6BD33",
"A  c #D6B23A",
"S  c #DAB33B",
"D  c #D8B43B",
"F  c #DAB43C",
"G  c #DDB73C",
"H  c #DDB83C",
"J  c #DFBA3D",
"K  c #DFBB3D",
"L  c #DFBB3E",
"P  c #E1AB32",
"I  c #E1B139",
"U  c #E3B03A",
"Y  c #E3B03B",
"T  c #E0B23A",
"R  c #E4B23B",
"E  c #E2B539",
"W  c #E6B53B",
"Q  c #E7B73B",
"!  c #E5B23C",
"~  c #E6B53C",
"^  c #E7B63C",
"/  c #E7B63D",
"(  c #E8B53A",
")  c #E8B63D",
"_  c #E9B63D",
"`  c #E8B73D",
"'  c #E9B73E",
"]  c #ECB73D",
"[  c #E7BE3A",
"{  c #E6B93E",
"}  c #EABC3B",
"|  c #EABB3C",
" . c #E8B83E",
".. c #EBB93F",
"X. c #EABA3F",
"o. c #EDB93D",
"O. c #EDBB3E",
"+. c #ECBA3F",
"@. c #EEBF3F",
"#. c #F0BC3C",
"$. c #CBC134",
"%. c #D5C836",
"&. c #D3C73F",
"*. c #D8CA39",
"=. c #DDCD39",
"-. c #DDCE39",
";. c #EEC23B",
":. c #EEC13F",
">. c #EEC63E",
",. c #E6CA38",
"<. c #EEC93C",
"1. c #EFC93D",
"2. c #EDC93E",
"3. c #EDCA3E",
"4. c #F3C03F",
"5. c #E0D03A",
"6. c #E5D13A",
"7. c #E9D13A",
"8. c #EED13E",
"9. c #ECD23F",
"0. c #F2D43E",
"q. c #F4D73F",
"w. c #A09E56",
"e. c #ABA85E",
"r. c #939466",
"t. c #A7A66D",
"y. c #E6BA43",
"u. c #E9BA40",
"i. c #EABA40",
"p. c #EABB40",
"a. c #EBBB40",
"s. c #EEB940",
"d. c #EDBB40",
"f. c #EFBA40",
"g. c #EFBB40",
"h. c #EABC40",
"j. c #EDBC40",
"k. c #ECBC41",
"l. c #EFBD40",
"z. c #EEBC41",
"x. c #F0BB40",
"c. c #F0BC40",
"v. c #F0BD40",
"b. c #F1BD41",
"n. c #F0BE40",
"m. c #F0BE41",
"M. c #F1BF41",
"N. c #F2BE40",
"B. c #F2BF41",
"V. c #F3BF42",
"C. c #CFC352",
"Z. c #ECC147",
"A. c #EAC24C",
"S. c #F1C041",
"D. c #F2C041",
"F. c #F1C042",
"G. c #F0C540",
"H. c #F3CE40",
"J. c #F1D140",
"K. c #EAC555",
"L. c #EFCA57",
"P. c #C9C37D",
"I. c #CBC77F",
"U. c #EAD169",
"Y. c #E9D26D",
"T. c #E8DA7C",
"R. c #EADA7C",
"E. c #D0CC81",
"W. c #E7DC83",
"Q. c #E1D986",
"!. c None",
/* pixels */
"!.!.!.!.!.!.!.4 2 !.!.!.!.!.!.!.",
"!.!.!.!.w.=.8.2.3.9.*.* !.!.!.!.",
"!.!.!.Q.L.o.f.c.c.f.d.H.%.!.!.!.",
"!.!.W. .#.v.l.l.l.l.n.g.:.-.!.!.",
"!.I.y.4.F.M.S.M.F.M.D.S.V.>.5 !.",
"!.U.P h b C m U n R f M g ! 7.!.",
"t.A.t 7 w ; 8 # $ % q & X Y <.O ",
"P.i.d > 0 N r , e : v < 9 _ ;.1 ",
"C.Q B.p.h.j.p.a.z.u.X.a.k.O.Z.e.",
"6 } { L B G F J S H D K A E K.r.",
"+ 1.I a y x i l z k u j s p Y.!.",
"!.6.' ) ^ ..W ` +.~ / ..( V E.!.",
"!.o 0.s.B.v.m.n.v.m.M.N.c T.!.!.",
"!.!.= q.+.x.v.v.m.b.] T R.@ !.!.",
"!.!.!.. 5.J.G.@.| [ ,.&.!.!.!.!.",
"!.!.!.!.!.  3 $.Z - !.!.!.!.!.!."
};
