/* XPM */
static char *result[] = {
/* columns rows colors chars-per-pixel */
"32 32 172 2 ",
"   c #524F16",
".  c #5B5719",
"X  c #5D5A19",
"o  c #555217",
"O  c #645F1A",
"+  c #6B661C",
"@  c #6F6A1D",
"#  c #67621B",
"$  c #736E1E",
"%  c #77731F",
"&  c #5D5D3D",
"*  c #7C7620",
"=  c #676744",
"-  c #76764D",
";  c #757553",
":  c #AC7515",
">  c #AB7B1B",
",  c #A47519",
"<  c #B07614",
"1  c #B37B16",
"2  c #BD7C13",
"3  c #B37C1A",
"4  c #BA7D1B",
"5  c #AD7E21",
"6  c #C47F12",
"7  c #B6821F",
"8  c #B8811D",
"9  c #8A8524",
"0  c #8F8925",
"q  c #908925",
"w  c #989027",
"e  c #9C9428",
"r  c #9E9929",
"t  c #B48423",
"y  c #BB8B26",
"u  c #BD8D29",
"i  c #BA8425",
"p  c #A49D2B",
"a  c #BD902A",
"s  c #BB9732",
"d  c #BD9A34",
"f  c #AEA92E",
"g  c #A6A12C",
"h  c #B0A82D",
"j  c #BBB22D",
"k  c #B7B030",
"l  c #C78213",
"z  c #C9851B",
"x  c #D0871A",
"c  c #D88D1B",
"v  c #D68A1A",
"b  c #C28723",
"n  c #C28924",
"m  c #CC8B23",
"M  c #C18B28",
"N  c #D38E22",
"B  c #C39625",
"V  c #CE9E27",
"C  c #C1942A",
"Z  c #C59A2C",
"A  c #CA9D2C",
"S  c #C9922A",
"D  c #D19F2B",
"F  c #D69124",
"G  c #C59C32",
"H  c #CB9D32",
"J  c #C29631",
"K  c #C6A42F",
"L  c #C4AA2F",
"P  c #D4A32C",
"I  c #DDAA2F",
"U  c #C6A230",
"Y  c #CCA233",
"T  c #CBAA35",
"R  c #CFA738",
"E  c #D2A535",
"W  c #D8A734",
"Q  c #D3A935",
"!  c #DBAC34",
"~  c #D0A738",
"^  c #D3AB39",
"/  c #DBAC3A",
"(  c #CDB434",
")  c #CEB834",
"_  c #C4BE33",
"`  c #DFB330",
"'  c #D2BC34",
"]  c #D5B23A",
"[  c #DCB23B",
"{  c #D6BA38",
"}  c #DEBB3C",
"|  c #E1B42F",
" . c #E1AD34",
".. c #E1AF3A",
"X. c #E4B433",
"o. c #EAB637",
"O. c #E6B831",
"+. c #EFBF32",
"@. c #E4B43D",
"#. c #E9B63E",
"$. c #E6B83F",
"%. c #ECBA3E",
"&. c #F1BD3E",
"*. c #C9C234",
"=. c #D5C335",
"-. c #D7C038",
";. c #DCCD39",
":. c #D9C837",
">. c #D7D138",
",. c #DDD039",
"<. c #E5C13E",
"1. c #E8C23E",
"2. c #E8D734",
"3. c #EADC3C",
"4. c #E5D93B",
"5. c #ECE33D",
"6. c #EFE83E",
"7. c #ECE237",
"8. c #F2E53E",
"9. c #F5EB3E",
"0. c #FFFB3F",
"q. c #8C8C5B",
"w. c #B79D45",
"e. c #BAA34C",
"r. c #BAA550",
"t. c #979868",
"y. c #AFAF73",
"u. c #B6B77A",
"i. c #BBBB7C",
"p. c #C1A141",
"a. c #CAAC4C",
"s. c #C4B059",
"d. c #D4BD53",
"f. c #EFBD40",
"g. c #F1BE41",
"h. c #CABB64",
"j. c #CEBE6A",
"k. c #E4C341",
"l. c #E8C541",
"z. c #ECCA42",
"x. c #F4C141",
"c. c #F1CC41",
"v. c #F9D344",
"b. c #FED844",
"n. c #E8D95A",
"m. c #F2EE40",
"M. c #F6F140",
"N. c #FDF541",
"B. c #FFFC43",
"V. c #CBC46D",
"C. c #D1C676",
"Z. c #D8CD79",
"A. c #D5CB7C",
"S. c #DBD174",
"D. c #E3E270",
"F. c #C7C88A",
"G. c #C9C988",
"H. c #C4C483",
"J. c #D9D283",
"K. c #D6D692",
"L. c #E7DF8B",
"P. c #E8E38F",
"I. c #FFFF82",
"U. c #E7E497",
"Y. c #EFEC99",
"T. c #FFFE99",
"R. c #F6F6A5",
"E. c #F9F7A1",
"W. c #F6F6A8",
"Q. c #FBFCAC",
"!. c #FFFFB4",
"~. c None",
/* pixels */
"~.~.~.~.~.~.~.~.~.~.~.~.~.~.o + @ . ~.~.~.~.~.~.~.~.~.~.~.~.~.~.",
"~.~.~.~.~.~.~.~.~.~.. f 4.N.N.B.N.B.N.8.j * ~.~.~.~.~.~.~.~.~.~.",
"~.~.~.~.~.~.~.~.; D.B.8.:.{ ] [ @.] { -.3.N.M.r ~.~.~.~.~.~.~.~.",
"~.~.~.~.~.~.~.K.!.S.Q / #.g.g.g.g.g.g.%.@.^ ' N.M.$ ~.~.~.~.~.~.",
"~.~.~.~.~.= !.U.a.X.g.g.f.f.f.f.f.f.%.g.g.g.#.Q ;.B.p ~.~.~.~.~.",
"~.~.~.~.- !.A.Y %.g.g.f.f.f.f.f.f.f.f.f.f.g.g.x.f.) B.k ~.~.~.~.",
"~.~.~.& !.C.E &.f.g.f.f.f.g.f.g.f.f.f.f.g.f.f.%.f.f.T B.g ~.~.~.",
"~.~.~.W.J.A &.%.f.f.f.f.f.f.f.f.f.f.f.f.f.f.f.f.f.f.f.( B.@ ~.~.",
"~.~.i.R.d o.g.g.%.f.f.f.g.f.f.f.f.f.f.f.f.f.f.f.f.f.g.^ <.9.~.~.",
"~.~.!.s. .g.g.x.x.g.f.g.g.g.g.f.g.g.f.f.x.g.g.g.f.f.g.f.U B.w ~.",
"~.u.Y.G &.@./ / ..[ f.$./ / %.@./ / f.f./ / f.[ / / f.f./ =.9.~.",
"~.Q.h.I g.M F m b N S J m N E H N N H W m i u N i b u f.%.K B.# ",
"& Q.p.%.f.y c y / b v y b c i b 4 z b u x s b c 4 5 J f.&.Y 8.h ",
"t.E.H %.f.7 6 t [ 3 2 C H 2 : : i 7 < : 3 / H 5 > l 3 f.g./ :.8.",
"u.P.A g.f.5 1 : , 3 t @.f.> 3 : ^ a : < u f., > : > y f.&. .) 0.",
"G.L.P x.g.[ / / / / g.g.f.[ / / g.@.W / f.g...W / / f.g.g. .' 0.",
"V.n.P g.f.x.x.x.x.x.f.f.x.x.x.x.g.g.x.x.f.l.g.x.x.x.x.g.g. .d.T.",
"j 2.E g.g.f./ Q [ ^ @.f.Q / ] Q @.#.~ Q / T / ~ &.a.R [ g.! j.!.",
"e 9.U &.f.Q k.k.] T G ] z.] ] z.] H l.z.U f.v.z.E W z.Q &.W Z.W.",
"# N.d f.f.} b.R f.f.Q b.o.a./ <.v.s z.c.Y <.} } 1.d c.^ &.H Y.i.",
"~.N.( @.f.U +.P R E G ` ` Y Y | ! d O.O.G ` ! d O.| O.E o.R !.- ",
"~.*.3.E x./ Z V B y E Y V a B V E / B B Y C C @.Z P B Y P V.Q.~.",
"~.. B.L %.x.f.@.@.$.x.x.f.@.@.f.x.f.@.@.f.@.f.f.$.@.@.X.s W.y.~.",
"~.~.:.8.Y x.f.f.x.f.f.f.f.g.f.g.g.f.g.g.f.g.f.f.g.g.%.B C.!.~.~.",
"~.~.~.B.=./ x.f.f.f.f.f.f.f.f.f.f.g.f.f.f.f.%.x.g.%.V r.!.q.~.~.",
"~.~.~.* B.) @.x.f.f.f.f.f.f.f.f.f.f.f.f.%.f.x.%.%.P w.!.H.~.~.~.",
"~.~.~.~.e B.) / g.f.f.f.f.g.f.f.f.f.g.f.l.g.g.%.D e.Q.K.~.~.~.~.",
"~.~.~.~.~.q B.,.R f.g.f.f.f.%.g.f.f.%.g.g.&./ B h.!.G.~.~.~.~.~.",
"~.~.~.~.~.~.# m.N.' ^ @.&.g.g.&.g.f.%.@.W G L 7.I.t.~.~.~.~.~.~.",
"~.~.~.~.~.~.~.~.p N.N.4.{ ] ] [ ! E Y L =.m.B.*.~.~.~.~.~.~.~.~.",
"~.~.~.~.~.~.~.~.~.~.9 >.N.N.N.N.N.N.B.B.5.g ~.~.~.~.~.~.~.~.~.~.",
"~.~.~.~.~.~.~.~.~.~.~.~.~.  $ 9 q % X ~.~.~.~.~.~.~.~.~.~.~.~.~."
};
